<?xml version="1.0" standalone="no"?>
<!DOCTYPE svg PUBLIC "-//W3C//DTD SVG 20010904//EN"
 "http://www.w3.org/TR/2001/REC-SVG-20010904/DTD/svg10.dtd">
<svg version="1.0" xmlns="http://www.w3.org/2000/svg"
 width="900.000000pt" height="900.000000pt" viewBox="0 0 900.000000 900.000000"
 preserveAspectRatio="xMidYMid meet">
<metadata>
Created by potrace 1.10, written by Peter Selinger 2001-2011
</metadata>
<g transform="translate(0.000000,900.000000) scale(0.100000,-0.100000)"
fill="#000000" stroke="none">
<path d="M4270 6800 c-112 -7 -213 -21 -295 -42 -22 -5 -58 -13 -80 -18 -40
-8 -191 -55 -275 -85 -81 -29 -272 -128 -291 -151 -9 -12 -9 -23 1 -55 25 -74
30 -77 86 -43 97 58 275 136 384 168 259 74 415 98 645 98 232 0 382 -23 645
-99 115 -33 378 -151 402 -180 6 -7 15 -13 20 -13 12 0 200 -130 263 -181 85
-70 199 -181 267 -259 57 -65 188 -243 188 -255 0 -2 11 -21 25 -41 53 -78
163 -324 203 -454 11 -35 24 -65 28 -67 8 -2 62 64 88 105 9 15 -3 62 -36 147
-39 97 -71 164 -141 297 -107 202 -315 448 -537 634 -78 65 -195 150 -230 167
-8 4 -28 16 -45 27 -42 27 -291 150 -304 150 -6 0 -25 6 -43 14 -250 107 -619
158 -968 136z"/>
<path d="M2900 6573 c-96 -43 -120 -55 -157 -80 -23 -16 -76 -59 -118 -98 -43
-38 -81 -71 -86 -73 -20 -8 -254 -292 -273 -332 -8 -18 -21 -38 -60 -100 -49
-75 -146 -277 -146 -302 0 -8 -4 -18 -9 -23 -10 -12 -44 -126 -62 -215 -28
-132 -10 -340 40 -453 25 -58 126 -166 190 -204 59 -34 176 -39 210 -9 12 11
21 24 21 31 0 18 -34 45 -58 45 -19 0 -49 11 -120 43 -30 14 -109 95 -128 132
-43 82 -54 138 -54 263 0 189 33 314 146 547 50 104 72 141 155 261 130 188
353 401 497 473 60 31 139 31 181 2 90 -64 123 -265 85 -526 -21 -149 -58
-341 -89 -465 -7 -30 -27 -116 -45 -190 -17 -74 -37 -158 -45 -186 -8 -28 -15
-60 -15 -71 0 -11 -6 -39 -14 -64 -37 -122 -121 -548 -150 -769 -8 -63 -22
-163 -31 -221 -8 -59 -15 -124 -15 -145 0 -22 -5 -57 -10 -79 -5 -22 -14 -92
-20 -156 -12 -129 -5 -169 30 -169 27 0 37 27 50 137 31 266 74 541 116 751
37 189 46 232 60 297 8 39 22 98 30 132 7 35 20 91 28 125 8 35 20 86 26 113
7 28 16 68 21 90 4 22 18 81 30 130 11 50 25 108 29 130 13 66 37 177 48 225
24 100 34 154 43 213 4 34 13 93 19 130 17 102 8 419 -14 476 -36 95 -84 156
-140 182 -51 23 -147 24 -196 2z"/>
<path d="M2964 6249 c-236 -212 -416 -449 -551 -730 -23 -47 -49 -105 -58
-130 -66 -183 -118 -373 -110 -400 8 -24 97 -102 105 -92 4 5 15 42 24 83 36
162 79 301 126 405 122 275 250 464 445 660 l109 110 -2 69 c-1 39 -6 74 -10
78 -5 5 -40 -19 -78 -53z"/>
<path d="M5357 5656 c-23 -22 -27 -33 -27 -84 0 -70 18 -92 73 -92 71 0 102
90 54 161 -29 43 -64 49 -100 15z"/>
<path d="M3343 5223 c-29 -25 -76 -116 -97 -188 -10 -33 -22 -75 -28 -92 -16
-57 -28 -207 -19 -261 13 -86 59 -115 114 -72 30 23 97 123 152 225 60 111 99
166 115 163 12 -3 16 -25 21 -98 13 -194 50 -299 122 -351 76 -55 148 -33 254
79 28 29 57 51 62 47 6 -3 11 -21 11 -40 0 -103 44 -213 97 -242 28 -15 37
-16 70 -4 100 35 221 213 345 506 87 207 91 225 44 225 -20 0 -56 -27 -56 -43
0 -10 -60 -139 -136 -292 -87 -176 -194 -318 -220 -293 -3 4 -11 41 -17 82
-14 94 5 252 58 497 20 90 19 115 -6 138 -20 19 -24 19 -51 5 -30 -15 -64 -79
-75 -139 -3 -16 -11 -49 -19 -73 -8 -23 -14 -57 -14 -75 0 -41 -78 -163 -162
-253 -53 -57 -65 -64 -98 -64 -79 0 -105 80 -126 385 -7 107 -25 145 -67 145
-20 0 -147 -122 -147 -140 0 -6 -12 -29 -27 -53 -31 -47 -37 -56 -76 -121 -16
-25 -33 -46 -38 -46 -23 0 -7 104 36 236 51 155 56 217 19 222 -11 2 -30 -5
-41 -15z"/>
<path d="M6054 5221 c-23 -10 -60 -38 -83 -62 -44 -46 -117 -183 -127 -240 -4
-19 -23 -51 -44 -74 -21 -22 -42 -48 -47 -59 -6 -10 -52 -60 -103 -112 -110
-111 -201 -166 -244 -146 -57 26 -96 142 -96 283 0 67 20 207 41 298 13 53 13
54 -14 77 -53 45 -109 -14 -127 -135 -5 -31 -14 -85 -20 -121 -20 -109 -1
-262 43 -360 24 -55 40 -74 91 -111 31 -23 49 -29 92 -29 106 0 217 79 368
262 21 26 42 45 46 43 4 -3 17 -31 29 -63 47 -124 128 -182 255 -182 121 0
220 49 350 174 38 36 70 66 72 66 1 0 27 -24 57 -54 64 -65 112 -81 202 -71
52 5 197 62 215 84 3 3 30 23 60 43 63 42 178 156 180 178 8 62 -27 52 -123
-33 -132 -117 -218 -168 -313 -188 -55 -11 -64 -10 -100 7 -66 33 -102 111
-74 163 5 10 31 28 57 40 81 38 99 49 141 91 56 56 82 110 82 170 0 59 -22 80
-88 80 -59 0 -114 -31 -182 -101 -69 -71 -112 -155 -118 -229 -6 -74 -56 -140
-182 -239 -83 -66 -147 -91 -231 -91 -63 0 -72 3 -94 26 -28 30 -65 122 -65
162 0 38 37 183 50 196 5 5 10 16 10 23 0 22 79 123 96 123 8 0 19 -11 24 -25
15 -38 56 -34 64 6 10 51 -4 107 -32 129 -31 25 -65 25 -118 1z m781 -81 c13
-21 -25 -79 -84 -124 -62 -48 -87 -52 -75 -13 9 28 67 96 108 124 35 25 42 27
51 13z"/>
<path d="M4881 5152 c-74 -77 -135 -214 -192 -426 -47 -179 8 -346 114 -346
72 0 136 55 189 162 92 184 83 391 -19 496 -19 19 -16 45 7 75 35 44 21 87
-29 87 -16 0 -40 -16 -70 -48z m62 -247 c22 -101 -17 -289 -75 -359 -33 -40
-40 -43 -62 -20 -32 31 -14 143 53 334 17 47 31 86 31 88 0 2 10 2 22 0 17 -2
24 -13 31 -43z"/>
<path d="M2214 4555 c-10 -24 2 -280 16 -345 6 -30 18 -89 26 -130 9 -41 22
-93 30 -115 8 -23 14 -47 14 -54 0 -7 6 -27 14 -44 8 -18 16 -41 19 -52 27
-101 136 -322 225 -454 23 -35 42 -65 42 -68 0 -6 86 -119 128 -168 71 -82
185 -195 198 -195 14 0 74 69 74 86 0 6 -28 40 -63 75 -35 35 -91 99 -126 141
-41 50 -78 84 -106 98 -59 28 -97 89 -103 160 -3 38 -18 84 -49 150 -80 167
-101 224 -147 390 -32 119 -65 339 -66 441 0 54 -14 75 -55 82 -16 2 -38 8
-47 12 -12 5 -20 2 -24 -10z"/>
<path d="M6560 4508 c0 -98 -42 -362 -77 -488 -36 -127 -118 -349 -143 -385
-4 -5 -24 -41 -45 -80 -21 -38 -50 -89 -66 -113 -16 -24 -29 -45 -29 -48 0
-17 -167 -220 -243 -297 -31 -32 -57 -65 -57 -73 0 -19 59 -84 76 -84 10 0
116 103 174 170 60 68 160 210 237 335 23 36 143 284 143 294 0 5 6 22 14 38
18 34 69 204 90 293 30 135 38 188 43 302 l6 116 -55 26 c-30 14 -58 26 -61
26 -4 0 -7 -14 -7 -32z"/>
<path d="M5727 2983 c-12 -11 -8 -48 8 -69 8 -10 15 -32 15 -47 0 -16 7 -41
16 -57 10 -15 14 -35 10 -45 -6 -16 -8 -17 -24 -1 -10 9 -22 16 -26 16 -4 0
-34 21 -67 46 -61 47 -95 53 -93 19 0 -25 133 -207 145 -199 16 10 9 30 -21
60 -16 16 -30 34 -30 40 0 6 -7 17 -15 24 -8 7 -15 19 -15 26 0 8 7 14 15 14
8 0 15 -5 15 -10 0 -6 8 -14 18 -17 9 -4 22 -11 27 -15 56 -45 89 -67 96 -62
14 8 10 66 -6 98 -16 30 -20 86 -7 86 5 0 26 -25 48 -55 36 -50 64 -70 64 -45
0 15 -32 63 -47 73 -7 4 -13 14 -13 22 0 8 -6 18 -13 22 -7 4 -23 25 -37 45
-23 35 -48 47 -63 31z"/>
<path d="M3106 2945 c-14 -15 -26 -34 -26 -40 0 -7 20 -40 45 -74 25 -34 45
-65 45 -69 0 -15 -36 -42 -56 -42 -33 1 -65 37 -71 80 -6 44 -17 51 -33 20
-22 -41 59 -130 118 -130 31 0 72 39 72 68 0 25 -29 82 -42 82 -9 0 -38 54
-38 70 0 6 11 15 24 21 18 9 30 7 55 -5 26 -14 31 -22 31 -51 0 -35 22 -50 33
-22 18 47 -29 106 -91 114 -35 5 -44 2 -66 -22z"/>
<path d="M3566 2712 c-3 -6 1 -29 9 -52 20 -57 19 -131 -2 -169 -14 -23 -15
-33 -6 -42 9 -9 18 0 39 38 25 45 75 91 129 118 22 12 33 45 14 45 -7 0 -36
-18 -65 -40 -29 -22 -55 -36 -57 -32 -3 4 -10 33 -16 64 -12 55 -33 89 -45 70z"/>
<path d="M5190 2675 c-14 -7 -42 -20 -62 -29 -41 -17 -48 -39 -23 -72 8 -10
15 -28 15 -40 0 -11 7 -29 15 -40 8 -10 15 -28 15 -39 1 -54 54 -82 96 -50 10
8 29 15 40 15 26 0 72 35 61 46 -4 5 -17 3 -27 -4 -11 -7 -27 -12 -37 -12 -9
0 -25 -7 -35 -17 -27 -24 -64 -4 -70 37 -4 25 0 35 23 51 15 10 34 19 42 19
26 0 47 12 47 26 0 17 -57 8 -81 -12 -25 -22 -47 -16 -64 17 -17 32 -8 59 20
59 8 0 26 7 42 14 15 8 36 17 46 20 10 3 15 10 12 16 -8 13 -44 11 -75 -5z"/>
<path d="M4108 2544 c-47 -25 -51 -106 -5 -119 45 -13 107 -51 113 -68 9 -27
-24 -57 -62 -57 -34 0 -75 29 -87 63 -8 22 -27 13 -27 -12 0 -36 71 -81 128
-81 35 0 82 46 82 80 0 32 -28 58 -97 90 -59 26 -68 49 -30 81 23 19 57 25 57
10 0 -5 9 -12 19 -16 10 -3 21 -15 24 -25 7 -29 27 -25 27 5 0 21 -9 29 -46
45 -54 24 -60 24 -96 4z"/>
<path d="M4660 2541 c-79 -6 -97 -23 -33 -31 l38 -5 7 -73 c12 -117 33 -175
51 -144 3 4 -1 41 -8 82 -22 119 -21 129 20 146 37 15 48 35 18 32 -10 -1 -52
-4 -93 -7z"/>
</g>
</svg>
